Coordinates
version=1
nRows=38
nColumns=12
inDegrees=yes

Units are S.I. units (second, meters, Newtons, ...)
Angles are in degrees

endheader
time	SC_y	SC_z	SC_x	AC_y	AC_z	AC_x	GH_y	GH_z	GH_yy	EL_x	PS_y
       0.0              -41.74          27.65          54.48          49.68          2.054          16.27         -174.8          66.57         -148.8          45.28          21.33
    0.0468              -41.74          27.65          54.48          49.68          2.054          16.27         -174.7          66.57         -148.8          45.29          21.34
    0.0936              -41.73          27.64          54.47          49.68          2.055          16.27         -174.7          66.57         -148.7          45.31          21.35
    0.1404              -41.73          27.64          54.47          49.68          2.056          16.27         -174.7          66.57         -148.7          45.32          21.36
    0.1872              -41.73          27.63          54.47          49.67          2.057          16.27         -174.6          66.57         -148.7          45.34          21.37
     0.234              -41.73          27.63          54.47          49.67          2.057          16.27         -174.6          66.57         -148.7          45.35          21.38
    0.2808              -41.72          27.62          54.47          49.67          2.058          16.26         -174.5          66.57         -148.6          45.37          21.39
    0.3276              -41.72          27.62          54.46          49.66          2.059          16.26         -174.5          66.56         -148.6          45.39           21.4
    0.3744              -41.72          27.61          54.46          49.66           2.06          16.26         -174.4          66.56         -148.6          45.41          21.42
    0.4212              -41.71          27.61          54.46          49.66          2.061          16.26         -174.4          66.56         -148.6          45.44          21.43
     0.468              -41.71           27.6          54.46          49.65          2.063          16.26         -174.3          66.56         -148.5          45.46          21.45
    0.5148              -41.71          27.59          54.45          49.65          2.064          16.25         -174.3          66.56         -148.5          45.49          21.46
    0.5616               -41.7          27.58          54.45          49.64          2.065          16.25         -174.2          66.55         -148.5          45.51          21.48
    0.6084               -41.7          27.58          54.45          49.64          2.067          16.25         -174.1          66.55         -148.4          45.54           21.5
    0.6552              -41.69          27.57          54.44          49.63          2.068          16.25         -174.0          66.55         -148.4          45.58          21.52
     0.702              -41.69          27.56          54.44          49.62           2.07          16.24         -173.9          66.55         -148.3          45.61          21.54
    0.7488              -41.68          27.54          54.43          49.62          2.072          16.24         -173.9          66.54         -148.3          45.65          21.57
    0.7956              -41.67          27.53          54.43          49.61          2.074          16.24         -173.7          66.54         -148.2          45.69           21.6
    0.8424              -41.67          27.52          54.42           49.6          2.076          16.23         -173.6          66.53         -148.1          45.74          21.63
    0.8892              -41.66           27.5          54.42          49.59          2.078          16.23         -173.5          66.53         -148.1          45.79          21.66
     0.936              -41.65          27.49          54.41          49.58          2.081          16.22         -173.4          66.52         -148.0          45.84          21.69
    0.9828              -41.64          27.47          54.41          49.57          2.084          16.22         -173.2          66.52         -147.9          45.91          21.73
      1.03              -41.63          27.45           54.4          49.56          2.087          16.21         -173.1          66.51         -147.8          45.97          21.78
     1.076              -41.62          27.43          54.39          49.55          2.091           16.2         -172.9          66.51         -147.7          46.05          21.83
     1.123              -41.61          27.41          54.38          49.53          2.095           16.2         -172.7           66.5         -147.6          46.13          21.88
      1.17              -41.59          27.38          54.37          49.52          2.099          16.19         -172.5          66.49         -147.5          46.22          21.94
     1.217              -41.58          27.35          54.36           49.5          2.104          16.18         -172.2          66.48         -147.3          46.32          22.01
     1.264              -41.56          27.32          54.35          49.48           2.11          16.17         -171.9          66.47         -147.2          46.44          22.08
      1.31              -41.54          27.28          54.33          49.45          2.116          16.16         -171.6          66.46         -147.0          46.57          22.17
     1.357              -41.52          27.23          54.31          49.43          2.123          16.14         -171.2          66.45         -146.8          46.72          22.26
     1.404              -41.49          27.18           54.3           49.4          2.131          16.13         -170.8          66.43         -146.6          46.89          22.37
     1.451              -41.46          27.13          54.27          49.36          2.141          16.11         -170.4          66.42         -146.3          47.09           22.5
     1.498              -41.43          27.06          54.25          49.32          2.152          16.09         -169.8           66.4         -146.0          47.31          22.65
     1.544              -41.39          26.99          54.22          49.27          2.164          16.07         -169.2          66.37         -145.6          47.58          22.82
     1.591              -41.34           26.9          54.18          49.22          2.179          16.04         -168.4          66.35         -145.2          47.88          23.01
     1.638              -41.29          26.79          54.14          49.15          2.196          16.01         -167.6          66.31         -144.7          48.24          23.25
     1.685              -41.22          26.67           54.1          49.08          2.217          15.97         -166.5          66.28         -144.1          48.67          23.53
     1.732              -41.14          26.52          54.04          48.99          2.242          15.92         -165.3          66.23         -143.4          49.19          23.86
